<svg id="Layer_1" data-name="Layer 1" xmlns="http://www.w3.org/2000/svg" viewBox="0 0 512 512">
    <defs>
        <style>.cls-1{fill:#00feb5;}.cls-2{fill:#00cb90;}.cls-3{fill:#00986c;}</style>
    </defs>
    <path class="cls-1" d="M128.07,43h0l0,0,9.2,16.07,29.18,51,9.16,16,73.53,128.41,3.82,6.68,5.37,9.38,5-8.74,3.59-6.21,31.11-53.87,9.23-16L341.72,126,351,110l39.22-67.94ZM332.48,110l-9.24,16-25.53,44.22-9.16,15.86-30.18,52.28L194,126l-9.16-16L155.58,58.87l206.83-.69Z" />
    <polygon class="cls-2" points="362.41 58.17 332.48 110.03 184.87 110.03 155.58 58.87 362.41 58.17" />
    <polygon class="cls-1" points="221.51 317.96 207.82 325.88 207.66 325.96 92.55 126.03 86.34 115.23 89.35 110.03 128.03 42.95 128.03 42.95 141.93 50.95 137.25 59.05 107.82 110.03 104.81 115.23 111.02 126.03 216.96 310.06 221.51 317.96" />
    <polygon class="cls-2" points="166.43 110.03 107.82 110.03 137.25 59.05 166.43 110.03" />
    <polygon class="cls-1" points="350.96 110.02 341.72 126.02 92.55 126.02 86.34 115.24 89.35 110.02 350.96 110.02" />
    <polygon class="cls-2" points="249.12 254.43 216.96 310.06 111.02 126.03 175.59 126.03 249.12 254.43" />
    <path class="cls-1" d="M376.73,453.08,345.92,398.7l-9.07-16L266.94,255.54l-1-1.79-8.32,4.71-.77-.45,6.46-4.33-7.4-11-6.81,11.79L217,310.07l-9.14,15.81L175,382.7l-9.25,16-41.16,71.22h261.7Zm-224.43.84,31.91-55.22,9.25-16,64.12-110.95,60.89,111,9.06,16,31.29,55.22Z" />
    <polygon class="cls-1" points="425.66 390.69 386.27 469.92 372.41 461.92 376.73 453.07 403.27 398.69 407.18 390.69 402.56 382.69 298.05 201.67 288.55 186.1 297.71 170.24 307.28 185.67 425.66 390.69" />
    <polygon class="cls-3" points="358.82 453.92 152.3 453.92 184.21 398.69 327.53 398.69 358.82 453.92" />
    <polygon class="cls-3" points="403.27 398.69 376.73 453.07 345.92 398.69 403.27 398.69" />
    <polygon class="cls-3" points="402.56 382.69 336.85 382.69 266.94 255.53 298.05 201.66 402.56 382.69" />
    <polygon class="cls-1" points="416.42 382.69 416.42 398.69 165.73 398.69 174.98 382.69 416.42 382.69" />
</svg>